<svg width="100%" height="100%" viewBox="0 0 410 291" fill="none" xmlns="http://www.w3.org/2000/svg">
	<g class="buttons">
		<path class="r2" d="M356.634 14.155L357.156 17.9173C357.499 20.3913 354.807 22.2597 352.556 21.1759C346.572 18.2936 336.605 14.1421 327.577 13.4144C319.925 12.7976 313.622 13.4109 309.465 14.0987C307.101 14.4897 304.886 12.2209 305.548 9.91819L306.619 6.19114C306.885 5.26658 307.571 4.52886 308.495 4.25835C312.187 3.17631 322.441 0.71842 333.662 2.82889C345.12 4.98397 353.048 10.3983 355.596 12.3344C356.176 12.7747 356.534 13.434 356.634 14.155Z"/>
		<path class="r1" d="M356.365 38.5521L355.518 33.1557C355.499 33.0394 355.475 32.9153 355.444 32.8018C355.341 32.4137 355.171 32.0416 354.943 31.7109C354.761 31.4468 354.541 31.205 354.294 31.0004C354.139 30.8421 352.998 30.1519 352.783 30.0062C348.059 27.0522 343.027 24.4051 337.714 22.6857C334.559 21.6571 331.244 20.9887 327.95 20.6062C324.831 20.2418 321.592 19.9777 318.453 20.0015C315.48 20.0169 312.47 20.2811 309.531 20.7162C308.578 20.8605 307.251 21.0658 306.307 21.2683C306.073 21.332 305.842 21.4224 305.627 21.5331C304.94 21.8849 304.377 22.4706 304.053 23.1706C303.951 23.3899 303.869 23.6246 303.815 23.86C303.807 23.9126 303.785 23.9854 303.779 24.0387L302.73 29.9333"/>
		<path class="l2" d="M53.3659 14.155L52.8439 17.9173C52.5007 20.3913 55.1932 22.2597 57.4435 21.1759C63.4282 18.2936 73.395 14.1421 82.4225 13.4144C90.0752 12.7976 96.3779 13.4109 100.535 14.0987C102.899 14.4897 105.114 12.2209 104.452 9.91819L103.381 6.19114C103.115 5.26658 102.429 4.52886 101.505 4.25835C97.8127 3.17631 87.5591 0.71842 76.338 2.82889C64.8798 4.98397 56.9523 10.3983 54.4036 12.3344C53.824 12.7747 53.466 13.434 53.3659 14.155Z"/>
		<path class="l1" d="M53.6348 38.5521L54.4812 33.1557C54.5008 33.0394 54.5246 32.9153 54.5554 32.8018C54.6584 32.4137 54.8287 32.0416 55.0564 31.7109C55.2379 31.4468 55.4586 31.205 55.7052 31.0004C55.8601 30.8421 57.0014 30.1519 57.2158 30.0062C61.9404 27.0522 66.9725 24.4051 72.2856 22.6857C75.4407 21.6571 78.7555 20.9887 82.0493 20.6062C85.1679 20.2418 88.4071 19.9777 91.5467 20.0015C94.5189 20.0169 97.529 20.2811 100.468 20.7162C101.421 20.8605 102.748 21.0658 103.693 21.2683C103.926 21.332 104.157 21.4224 104.372 21.5331C105.059 21.8849 105.622 22.4706 105.947 23.1706C106.048 23.3899 106.13 23.6246 106.184 23.86C106.192 23.9126 106.214 23.9854 106.221 24.0387L107.269 29.9333"/>
	</g>
	<path class="background" fill-rule="evenodd" clip-rule="evenodd" d="M53.6337 38.507C53.6337 38.507 76 34 86 32C96 30 107.269 29.8889 107.269 29.8889C108.764 29.98 110.276 30.1621 111.734 30.523C119.927 28.606 128.6 27.4422 136.964 26.5187C159.139 23.3118 182.607 23.0904 205.001 23C227.389 23.0897 250.872 22.3125 273.038 25.5187C281.4 26.4415 290.077 28.606 298.269 30.523C299.725 30.1635 301.235 29.9807 302.731 29.8903C302.731 29.8903 317.5 30.5 325.5 32C333.5 33.5 356.365 38.5077 356.365 38.5077L359.993 39.3176C360.017 39.3231 360.046 39.3306 360.074 39.3379C360.097 39.3437 360.119 39.3494 360.138 39.3541C360.166 39.362 360.194 39.3699 360.223 39.3779C360.307 39.4014 360.394 39.4256 360.474 39.455C360.665 39.5173 360.852 39.5972 361.035 39.6799C361.876 40.0709 362.605 40.6762 363.217 41.3678C363.859 42.093 364.384 42.9211 364.835 43.7759C370.102 54.8947 375.341 67.0785 379.836 78.5286C388.796 101.493 396.128 125.452 400.083 149.813C402.299 163.041 403.438 177.333 404.356 190.726C405.213 205.299 405.468 220.247 403.506 234.741C402.237 243.931 400.289 253.176 396.728 261.771C394.606 266.806 391.852 271.772 387.653 275.368C384.374 278.21 380.334 280.023 376.238 281.354C371.95 282.739 367.489 283.72 363.034 284.382C359.886 284.823 356.667 285.173 353.485 285.015C352.441 284.951 351.386 284.812 350.398 284.456C349.711 284.211 349.058 283.851 348.486 283.397C347.645 282.733 346.955 281.88 346.358 280.996C346.054 280.538 345.72 280.011 345.454 279.533L345.3 279.261L345.144 278.981L344.829 278.395C342.99 274.823 340.874 270.038 339.273 266.366C335.538 257.779 331.044 246.792 327.68 238.081C326.301 234.516 324.534 229.507 322.851 224.738L322.851 224.735C321.671 221.391 320.532 218.164 319.598 215.634C318.232 212.07 316.7 208.48 314.685 205.23C312.412 201.549 309.45 198.235 305.85 195.811C304.145 194.675 302.25 193.793 300.304 193.156C296.851 192.03 293.195 191.563 289.581 191.352C286.138 191.158 282.47 191.223 279.029 191.396C250.719 193.412 217.38 193.479 188.841 193.368C170.97 193.271 150.531 192.681 132.746 191.5C130.652 191.366 128.154 191.261 126.057 191.237C122.274 191.205 118.384 191.347 114.652 191.967C111.847 192.433 109.049 193.189 106.494 194.458C104.665 195.359 102.972 196.548 101.446 197.896C99.33 199.748 97.4851 201.915 95.9339 204.258C93.1109 208.502 91.2261 213.37 89.4717 218.136C89.2341 218.812 88.9857 219.52 88.7283 220.253C86.299 227.175 83.068 236.38 80.5845 242.556C76.403 253.107 71.291 265.426 66.5132 275.693C65.9975 276.779 65.2695 278.23 64.6971 279.261C64.4617 279.679 64.1975 280.135 63.9383 280.54C63.2663 281.593 62.497 282.618 61.5112 283.397C60.9121 283.872 60.2283 284.242 59.5045 284.49C58.6217 284.795 57.6961 284.927 56.7656 284.998C55.2024 285.105 53.5986 285.05 52.0334 284.943C49.8389 284.789 47.5926 284.495 45.4198 284.142C41.4912 283.487 37.5514 282.58 33.7602 281.354C29.6627 280.024 25.6269 278.209 22.345 275.368C18.3751 271.974 15.6979 267.337 13.6253 262.602C9.82776 253.776 7.80986 244.228 6.49262 234.741C4.52797 220.246 4.79142 205.3 5.64272 190.726C6.53817 177.337 7.69986 163.034 9.91534 149.813C13.8685 125.45 21.2058 101.496 30.1616 78.5279C34.6444 67.068 39.9085 54.9073 45.1627 43.7752C45.5936 42.9548 46.0967 42.1616 46.7013 41.4575C47.3179 40.74 48.0592 40.1108 48.9161 39.7009C49.1726 39.5776 49.443 39.4753 49.7149 39.394L49.7632 39.38L49.8116 39.3667L49.8599 39.3534L49.9083 39.3408L49.9566 39.3289L50.0057 39.3169L53.6337 38.507Z"/>
	<path class="outlines" d="M121.709 44C121.132 40.0042 122.07 38.1763 125.535 33.8381C129 29.5 136.962 26.5618 136.962 26.5618M121.709 44C123.054 49.611 124.512 57.0142 125.391 60.8212C126.943 68.2454 128.724 77.2208 129.854 84.701C130.359 88.198 130.78 91.8527 130.876 95.3854C130.928 97.6801 130.845 100.016 130.398 102.272C130.08 103.879 129.562 105.458 128.85 106.934C127.817 109.081 126.393 111.054 124.917 112.918L112.922 127.688C108.506 133.269 103.948 139.499 100.028 145.443C95.5831 152.184 90.9861 160.009 87.0932 167.089C80.7712 178.65 74.5346 191.317 69.3119 203.408C61.3587 221.466 53.5134 246.141 47.1886 265.07C46.0619 268.253 44.8512 271.602 43.2628 274.581C42.3547 276.262 41.2954 277.911 39.873 279.205C38.9453 280.048 37.8369 280.713 36.6171 281.025C35.2802 281.377 33.8614 281.3 32.5252 280.98M121.709 44C121.245 42.0631 120.794 40.3398 120.385 39.0517C119.901 37.5873 119.295 36.125 118.405 34.8561C117.341 33.3217 115.828 32.1131 114.118 31.369C113.398 31.0524 112.652 30.8032 111.892 30.6063M136.962 26.5618C128.6 27.4845 111.892 30.6063 111.892 30.6063M136.962 26.5618C136.962 26.5618 173.498 22.4602 204.998 22.5C236.498 22.5399 272.882 25.5159 273.036 25.5618M288.408 43.5C288.985 39.5042 288.458 36.0908 284.872 33.8381L273.036 25.5618M288.408 43.5C288.828 41.775 289.236 40.2387 289.613 39.051C290.099 37.5845 290.703 36.1257 291.593 34.8554C292.658 33.3196 294.169 32.1138 295.88 31.3683C296.566 31.0661 297.276 30.8256 298 30.6333M288.408 43.5C287.042 49.1122 285.553 56.7217 284.606 60.8205C283.074 68.279 281.244 77.2117 280.144 84.7003C279.633 88.2036 279.217 91.8506 279.121 95.3847C279.068 97.5932 279.147 99.8367 279.548 102.012C279.861 103.71 280.397 105.377 281.146 106.934C282.178 109.081 283.608 111.051 285.079 112.918L297.074 127.688C301.491 133.271 306.047 139.495 309.968 145.443C314.413 152.184 319.01 160.008 322.903 167.089C329.226 178.651 335.461 191.315 340.685 203.408C348.615 221.401 356.521 246.254 362.807 265.07C363.936 268.257 365.144 271.599 366.733 274.581C367.641 276.263 368.701 277.911 370.123 279.205C371.05 280.048 372.159 280.713 373.379 281.025C374.717 281.377 376.135 281.3 377.471 280.98M273.036 25.5618C281.398 26.4845 289.809 28.7163 298 30.6333M298 30.6333C299.357 30.2728 300.764 30.0817 302.158 29.9712C305.21 29.7392 308.326 29.9102 311.372 30.175C321.74 31.1931 332.713 33.5263 342.938 35.6311L359.943 39.3502C360.003 39.3642 360.077 39.381 360.137 39.3978C360.299 39.4392 360.457 39.4938 360.615 39.5492C360.806 39.6171 360.99 39.7019 361.172 39.7902C361.648 40.0242 362.083 40.3367 362.484 40.6807C363.587 41.6483 364.39 42.9109 365.036 44.2163C374.603 64.6692 383.352 86.0379 390.029 107.617C393.931 120.261 397.241 133.493 399.52 146.528C401.81 159.328 403.104 173.125 404.053 186.121C405.447 206.344 405.853 227.087 401.337 246.965C400.402 251.083 399.232 255.237 397.762 259.197C396.559 262.404 395.139 265.608 393.354 268.536C391.918 270.901 390.196 273.124 388.14 274.983C386.205 276.743 383.968 278.168 381.61 279.29C376.975 281.464 371.943 282.765 366.937 283.763C364.217 284.287 361.407 284.703 358.647 284.935C356.856 285.07 355.029 285.173 353.232 285.043C352.206 284.966 351.171 284.807 350.209 284.43C349.43 284.128 348.708 283.669 348.092 283.107C347.003 282.112 346.186 280.846 345.454 279.577L345.3 279.306L345.145 279.025L344.829 278.44L344.507 277.819L344.176 277.162L343.484 275.738L342.743 274.159C338.299 264.443 333.338 252.546 329.413 242.601C326.032 234.236 322.324 222.938 319.133 214.479C318.242 212.243 317.263 209.933 316.13 207.807C314.426 204.563 312.292 201.501 309.647 198.953C308.319 197.67 306.87 196.478 305.299 195.503C303.506 194.386 301.521 193.546 299.496 192.95C296.692 192.125 293.751 191.704 290.841 191.481C287.545 191.234 284.037 191.235 280.734 191.364C270.42 191.952 257.393 192.687 247.059 192.98C234.915 193.366 217.183 193.43 204.998 193.443C192.823 193.444 175.067 193.361 162.937 192.98C152.596 192.694 139.58 191.947 129.262 191.364C125.955 191.237 122.451 191.233 119.155 191.481C116.245 191.705 113.306 192.125 110.501 192.95C108.581 193.516 106.698 194.297 104.981 195.33C103.299 196.338 101.759 197.593 100.35 198.953C97.704 201.502 95.5726 204.563 93.8679 207.808C92.7328 209.935 91.7666 212.237 90.8642 214.479C89.699 217.258 86.3765 227.188 85.2113 230.284C83.9017 233.981 82.0107 238.929 80.5855 242.602C76.6506 252.552 71.6955 264.45 67.2548 274.161C66.4392 275.893 65.4933 277.932 64.5439 279.579C63.7935 280.878 62.9576 282.174 61.8289 283.178C61.1794 283.756 60.4205 284.21 59.6008 284.502C58.4454 284.917 57.2108 285.037 55.9903 285.085C51.9272 285.185 47.8444 284.622 43.8514 283.914C40.9695 283.383 38.0506 282.698 35.241 281.862C32.816 281.128 30.3567 280.264 28.0823 279.144C25.8367 278.049 23.7109 276.667 21.8591 274.985C19.8019 273.127 18.0825 270.903 16.6448 268.539C14.8588 265.61 13.4442 262.404 12.2369 259.199C10.7634 255.241 9.60244 251.083 8.66146 246.967C4.14431 227.088 4.55559 206.345 5.9457 186.124C6.8965 173.143 8.18711 159.319 10.479 146.53C12.7533 133.494 16.0758 120.265 19.9701 107.619C26.6102 86.1332 35.3299 64.8647 44.8302 44.4916C45.4979 43.0861 46.3366 41.7184 47.5137 40.6821C48.0518 40.2127 48.6656 39.8203 49.3354 39.5681C49.5204 39.4959 49.718 39.4371 49.9093 39.3866L49.9576 39.3747L50.0066 39.3628L50.0557 39.3516L67.0607 35.6325C76.9442 33.623 87.6482 31.2982 97.6753 30.2682C100.923 29.9494 104.252 29.7364 107.513 29.9487C108.98 30.0503 110.462 30.236 111.892 30.6063M129.293 81.1011C130.338 87.1856 131.615 93.3535 133.84 99.1269C135.064 102.257 136.613 105.324 138.787 107.909C140.073 109.439 141.593 110.783 143.299 111.828C146.56 113.842 150.388 114.703 154.161 115.113C158.63 115.598 163.622 115.54 168.133 115.557C173.844 115.499 248.336 115.701 251.587 115.426C253.902 115.319 256.304 115.131 258.586 114.725C261.422 114.224 264.238 113.348 266.699 111.828C268.405 110.783 269.926 109.439 271.211 107.909C273.384 105.324 274.934 102.257 276.159 99.1269C278.383 93.3535 279.662 87.1849 280.705 81.1011"/>
	<g class="buttons">
		<path class="share" d="M109.525 43.1021C108.667 43.2927 107.867 43.739 107.255 44.3696C106.643 44.9967 106.218 45.8053 106.05 46.6657C105.928 47.2823 105.936 47.9255 106.073 48.5386C106.091 48.5897 108.122 57.734 108.136 57.7789C108.167 57.9106 108.206 58.0465 108.249 58.1747C108.386 58.5888 108.585 58.9847 108.834 59.3427C109.356 60.0938 110.111 60.6803 110.968 61.0005C111.79 61.3109 112.704 61.3746 113.562 61.182C114.42 60.9914 115.219 60.5451 115.832 59.9145C116.457 59.2741 116.887 58.4438 117.047 57.5624C117.13 57.1146 117.145 56.6522 117.091 56.2003C117.075 56.0657 117.052 55.9263 117.024 55.7946C117.024 55.7617 114.964 46.5949 114.961 46.5543C114.828 45.9594 114.574 45.3905 114.219 44.8951C113.698 44.1664 112.957 43.5975 112.118 43.2836C111.296 42.9732 110.383 42.9095 109.525 43.1021Z"/>
		<path class="options" d="M300.474 43.1021C301.333 43.2927 302.132 43.739 302.744 44.3696C303.357 44.9967 303.781 45.8053 303.949 46.6657C304.071 47.2823 304.064 47.9255 303.926 48.5386C303.907 48.5897 301.877 57.734 301.862 57.7789C301.831 57.9106 301.793 58.0465 301.75 58.1747C301.613 58.5888 301.414 58.9847 301.164 59.3427C300.642 60.0938 299.888 60.6803 299.031 61.0005C298.208 61.3109 297.295 61.3746 296.437 61.182C295.579 60.9914 294.779 60.5451 294.167 59.9145C293.541 59.2741 293.112 58.4438 292.951 57.5624C292.869 57.1146 292.854 56.6522 292.908 56.2003C292.924 56.0657 292.946 55.9263 292.975 55.7946C292.974 55.7617 295.035 46.5949 295.038 46.5543C295.17 45.9594 295.425 45.3905 295.78 44.8951C296.3 44.1664 297.042 43.5975 297.88 43.2836C298.703 42.9732 299.617 42.9095 300.474 43.1021Z"/>
		<path class="r3" d="M243 150.999C242.978 142.277 247.466 133.985 254.781 129.233C268.148 120.538 286.053 125.741 292.677 140.246C295.774 147.005 295.774 154.995 292.677 161.754C286.053 176.259 268.147 181.462 254.781 172.767C247.465 168.014 242.978 159.722 243 150.999Z"/>
		<path class="l3" d="M115 150.999C114.978 142.277 119.466 133.985 126.781 129.233C140.148 120.538 158.053 125.741 164.677 140.246C167.774 147.005 167.774 154.995 164.677 161.754C158.053 176.259 140.147 181.462 126.781 172.767C119.465 168.014 114.978 159.722 115 150.999Z"/>
		<g class="rxy">
			<circle cx="270" cy="152" r="16"/>
			<circle cx="270" cy="152" r="4"/>
		</g>
		<g class="lxy">
			<circle cx="140" cy="152" r="16"/>
			<circle cx="140" cy="152" r="4"/>
		</g>
		<g class="ps">
			<path d="M217.436 153.014C217.141 153.374 216.726 153.615 216.317 153.827C216.09 153.94 215.848 154.049 215.608 154.133C212.869 155.117 209.335 156.386 206.597 157.37C206.578 156.642 206.597 155.695 206.59 154.963C208.654 154.206 211.301 153.287 213.372 152.539C213.539 152.474 213.724 152.385 213.848 152.263C213.86 152.252 213.863 152.248 213.863 152.248C213.874 152.237 213.876 152.233 213.876 152.233C213.886 152.222 213.889 152.219 213.889 152.219C213.897 152.207 213.9 152.204 213.9 152.204C213.908 152.193 213.911 152.189 213.911 152.189C213.918 152.178 213.92 152.175 213.92 152.175C213.926 152.163 213.928 152.16 213.928 152.16C213.934 152.149 213.936 152.145 213.936 152.145C213.941 152.134 213.942 152.13 213.942 152.13C213.946 152.119 213.948 152.116 213.948 152.116C213.951 152.104 213.952 152.101 213.952 152.101C213.955 152.09 213.956 152.086 213.956 152.086C213.958 152.075 213.958 152.072 213.958 152.072C213.959 152.061 213.959 152.057 213.959 152.057C213.96 152.046 213.96 152.043 213.96 152.043C213.959 152.032 213.959 152.029 213.959 152.029C213.958 152.018 213.958 152.015 213.958 152.015C213.956 152.004 213.955 152.001 213.955 152.001C213.952 151.99 213.951 151.987 213.951 151.987C213.948 151.976 213.946 151.973 213.946 151.973C213.942 151.962 213.941 151.959 213.941 151.959C213.936 151.948 213.934 151.945 213.934 151.945C213.928 151.936 213.926 151.932 213.926 151.932C213.92 151.922 213.917 151.919 213.917 151.919C213.91 151.909 213.907 151.906 213.907 151.906C213.896 151.892 213.893 151.889 213.893 151.889C213.881 151.877 213.878 151.873 213.878 151.873C213.868 151.863 213.864 151.861 213.864 151.861C213.853 151.852 213.85 151.848 213.85 151.848C213.838 151.839 213.834 151.835 213.834 151.835C213.592 151.667 213.265 151.625 212.981 151.597C212.468 151.558 211.945 151.603 211.444 151.721C211.317 151.751 211.187 151.788 211.064 151.833C209.705 152.312 207.964 152.925 206.604 153.404C206.579 153.397 206.597 153.32 206.592 153.301V153.017C206.592 152.411 206.592 151.512 206.592 150.909C207.561 150.547 208.6 150.341 209.625 150.197C210.7 150.049 211.802 150.055 212.88 150.178C213.854 150.291 214.83 150.499 215.749 150.846C216.287 151.021 216.835 151.238 217.261 151.622C217.448 151.792 217.612 152.022 217.654 152.27C217.701 152.541 217.603 152.806 217.436 153.014Z"/>
			<path d="M207.458 148.9C207.458 146.99 207.459 144.565 207.458 142.654C207.455 142.481 207.445 142.304 207.417 142.133C207.382 141.909 207.304 141.664 207.168 141.487C207.032 141.305 206.851 141.197 206.643 141.139C206.614 141.13 206.589 141.124 206.571 141.12C206.44 141.091 206.306 141.108 206.198 141.171C206.185 141.178 206.181 141.181 206.181 141.181C206.168 141.19 206.163 141.192 206.163 141.192C206.151 141.202 206.147 141.204 206.147 141.204C206.134 141.214 206.131 141.217 206.131 141.217C206.119 141.227 206.114 141.23 206.114 141.23C206.103 141.241 206.099 141.244 206.099 141.244C205.888 141.452 205.829 141.738 205.805 142.016C205.788 146.794 205.805 152.863 205.799 157.642C204.53 157.272 202.907 156.724 201.639 156.332C201.604 150.718 201.639 143.505 201.627 137.88C203.357 138.215 205.122 138.738 206.802 139.268C208.148 139.706 209.547 140.211 210.601 141.189C211.09 141.644 211.469 142.216 211.701 142.842C212.008 143.664 212.095 144.553 212.106 145.424C212.12 146.546 211.94 147.779 211.143 148.628C210.721 149.077 210.127 149.337 209.514 149.371C208.801 149.417 208.094 149.207 207.458 148.9Z"/>
			<path d="M193.969 154.703C193.352 154.523 192.688 154.256 192.279 153.738C192.082 153.486 191.989 153.153 192.085 152.854C192.206 152.463 192.549 152.238 192.877 152.037C193.49 151.671 194.16 151.393 194.833 151.159C196.656 150.511 198.99 149.681 200.814 149.032C200.817 149.769 200.814 150.713 200.815 151.45C199.47 151.954 197.756 152.541 196.408 153.037C196.252 153.1 196.08 153.186 195.965 153.3C195.954 153.311 195.951 153.315 195.951 153.315C195.941 153.326 195.937 153.329 195.937 153.329C195.928 153.34 195.925 153.344 195.925 153.344C195.916 153.355 195.914 153.359 195.914 153.359C195.906 153.37 195.903 153.373 195.903 153.373C195.896 153.385 195.894 153.388 195.894 153.388C195.888 153.399 195.886 153.403 195.886 153.403C195.88 153.414 195.878 153.418 195.878 153.418C195.873 153.429 195.872 153.432 195.872 153.432C195.867 153.443 195.866 153.447 195.866 153.447C195.862 153.458 195.862 153.462 195.862 153.462C195.859 153.473 195.858 153.476 195.858 153.476C195.856 153.488 195.856 153.491 195.856 153.491C195.855 153.502 195.855 153.506 195.855 153.506C195.854 153.516 195.854 153.52 195.854 153.52C195.855 153.53 195.855 153.534 195.855 153.534C195.856 153.544 195.856 153.548 195.856 153.548C195.858 153.558 195.859 153.562 195.859 153.562C195.862 153.572 195.862 153.576 195.862 153.576C195.866 153.586 195.867 153.59 195.867 153.59C195.872 153.6 195.873 153.604 195.873 153.604C195.878 153.614 195.88 153.617 195.88 153.617C195.886 153.627 195.888 153.631 195.888 153.631C195.894 153.64 195.897 153.644 195.897 153.644C195.904 153.654 195.907 153.657 195.907 153.657C195.918 153.67 195.921 153.673 195.921 153.673C195.933 153.686 195.936 153.689 195.936 153.689C195.946 153.699 195.949 153.702 195.949 153.702C195.961 153.711 195.964 153.715 195.964 153.715C195.976 153.724 195.979 153.727 195.979 153.727C196.122 153.83 196.273 153.87 196.436 153.909C196.658 153.956 196.886 153.975 197.112 153.979C197.574 153.984 198.042 153.931 198.488 153.812C199.223 153.578 200.08 153.238 200.808 152.982C200.825 153.636 200.808 154.487 200.814 155.144C200.041 155.3 199.223 155.381 198.431 155.393C196.923 155.416 195.403 155.176 193.969 154.703Z"/>
		</g>
		<path class="mute" d="M214.511 172.158C214.517 172.992 214.002 173.781 213.236 174.112C213.012 174.211 212.769 174.27 212.524 174.287C212.477 174.29 212.423 174.292 212.377 174.292H197.624C197.54 174.292 197.45 174.287 197.367 174.277C197.099 174.245 196.836 174.16 196.6 174.03C195.902 173.656 195.457 172.875 195.491 172.084C195.511 171.331 195.963 170.612 196.632 170.268C196.871 170.142 197.136 170.062 197.404 170.034C197.475 170.027 197.552 170.023 197.625 170.023H212.378C212.436 170.023 212.503 170.026 212.562 170.031C212.794 170.051 213.024 170.11 213.237 170.203C214.002 170.534 214.518 171.324 214.511 172.158Z"/>
		<path class="square" d="M313.512 96.6695C313.528 92.233 311.229 87.9835 307.505 85.5704C300.697 81.1359 291.554 83.7928 288.183 91.1855C286.606 94.6173 286.606 98.7211 288.183 102.153C291.554 109.546 300.698 112.203 307.505 107.768C311.229 105.356 313.528 101.106 313.512 96.6695Z"/>
		<path class="circle" d="M372.336 96.6695C372.352 92.233 370.052 87.9835 366.329 85.5704C359.52 81.1359 350.378 83.7928 347.007 91.1855C345.429 94.6173 345.429 98.7211 347.007 102.153C350.378 109.546 359.521 112.203 366.329 107.768C370.052 105.356 372.352 101.106 372.336 96.6695Z"/>
		<path class="cross" d="M329.666 112.823C325.23 112.807 320.98 115.107 318.567 118.83C314.133 125.638 316.79 134.781 324.183 138.152C327.615 139.73 331.719 139.73 335.15 138.152C342.543 134.781 345.201 125.638 340.765 118.83C338.352 115.107 334.103 112.808 329.666 112.823Z"/>
		<path class="triangle" d="M329.666 54.0001C325.23 53.984 320.98 56.2835 318.567 60.0068C314.133 66.8151 316.79 75.958 324.183 79.3289C327.615 80.9068 331.719 80.9068 335.15 79.3289C342.543 75.958 345.201 66.8144 340.765 60.0068C338.352 56.2835 334.103 53.984 329.666 54.0001Z"/>
		<path class="right" d="M112.485 100.658C112.473 102.558 112.034 104.665 110.478 105.91C109.689 106.55 108.698 106.894 107.702 107.036C107.062 107.13 106.405 107.147 105.759 107.118C105.267 107.111 95.5119 106.039 94.8309 105.955C94.5443 105.904 94.2634 105.805 94.0083 105.665C93.7932 105.548 93.5928 105.398 93.4177 105.227L85.77 97.7289L85.737 97.696L85.7041 97.6624C85.5976 97.5502 85.4974 97.4255 85.4119 97.2966C84.939 96.5939 84.8297 95.6662 85.1275 94.873C85.2298 94.5949 85.3797 94.3321 85.5668 94.1023C85.6354 94.0189 85.7111 93.9356 85.7889 93.8613L93.5116 86.4413C93.5312 86.4301 93.5599 86.3909 93.5788 86.3782C93.7386 86.2353 93.9172 86.1092 94.1064 86.0083C94.3496 85.878 94.6151 85.7848 94.887 85.7343C94.9598 85.7217 95.0411 85.7084 95.1154 85.7021L104.954 84.7352C106.144 84.6217 107.369 84.6231 108.532 84.923C109.272 85.1143 109.988 85.4408 110.579 85.9298C111.132 86.3831 111.567 86.9738 111.865 87.6219C112.143 88.2224 112.315 88.8712 112.415 89.5242C112.471 89.8949 112.506 90.2774 112.521 90.6516C112.563 93.2762 112.514 98.0281 112.485 100.658Z"/>
		<path class="left" d="M47.0189 91.0355C47.0217 89.1353 47.4505 87.0257 48.9997 85.7729C49.7851 85.1297 50.7744 84.7807 51.7701 84.6322C52.4098 84.5355 53.0663 84.5152 53.713 84.5404C54.2049 84.546 63.9651 85.5676 64.6468 85.6489C64.9341 85.6986 65.215 85.796 65.4715 85.9347C65.6866 86.0517 65.8884 86.1996 66.0642 86.3705L73.7498 93.8298L73.7834 93.8627L73.8163 93.8963C73.9235 94.0077 74.0244 94.1324 74.1106 94.2607C74.587 94.9606 74.7005 95.8883 74.407 96.6828C74.3061 96.9617 74.1575 97.2252 73.9712 97.4557C73.9032 97.539 73.8275 97.6231 73.7498 97.6981L66.0642 105.157C66.0446 105.169 66.0166 105.208 65.997 105.22C65.8379 105.364 65.6599 105.491 65.4715 105.593C65.229 105.725 64.9635 105.819 64.6923 105.871C64.6195 105.885 64.5382 105.898 64.4639 105.905L54.6302 106.922C53.4411 107.041 52.2164 107.046 51.0512 106.752C50.3099 106.565 49.5938 106.242 48.9997 105.756C48.4448 105.305 48.0068 104.717 47.7049 104.071C47.4239 103.472 47.2487 102.823 47.1457 102.171C47.0876 101.801 47.0511 101.419 47.0329 101.044C46.979 98.417 47.0042 93.6651 47.0189 91.0355Z"/>
		<path class="down" d="M75.0372 128.51C73.1371 128.507 71.0274 128.078 69.7746 126.529C69.1314 125.743 68.7825 124.754 68.6339 123.758C68.5372 123.119 68.5169 122.462 68.5421 121.815C68.5477 121.324 69.5693 111.563 69.6506 110.882C69.7003 110.594 69.7977 110.313 69.9364 110.057C70.0534 109.841 70.2013 109.64 70.3722 109.464L77.8315 101.779L77.8644 101.745L77.898 101.712C78.0094 101.605 78.1342 101.504 78.2624 101.418C78.9623 100.941 79.89 100.828 80.6846 101.121C80.9634 101.222 81.2269 101.371 81.4574 101.557C81.5408 101.625 81.6248 101.701 81.6998 101.779L89.159 109.464C89.1709 109.484 89.2102 109.512 89.2221 109.532C89.3657 109.691 89.4925 109.869 89.5948 110.057C89.7266 110.299 89.8211 110.565 89.873 110.836C89.8863 110.909 89.8996 110.99 89.9066 111.065L90.9233 120.898C91.0431 122.087 91.0473 123.312 90.7537 124.477C90.5666 125.219 90.2436 125.935 89.7574 126.529C89.3069 127.084 88.7183 127.522 88.0723 127.824C87.4732 128.105 86.8251 128.28 86.1728 128.383C85.8029 128.441 85.4203 128.477 85.0461 128.496C82.4187 128.549 77.6661 128.524 75.0372 128.51Z"/>
		<path class="up" d="M84.493 63.0189C86.3931 63.0217 88.5028 63.4505 89.7556 64.9997C90.3988 65.7851 90.7477 66.7744 90.8963 67.7701C90.993 68.4098 91.0133 69.0663 90.9881 69.713C90.9825 70.2049 89.9609 79.9651 89.8796 80.6468C89.8299 80.9341 89.7325 81.215 89.5938 81.4715C89.4767 81.6866 89.3289 81.8884 89.158 82.0642L81.6987 89.7498L81.6658 89.7834L81.6322 89.8163C81.5208 89.9235 81.396 90.0244 81.2678 90.1106C80.5679 90.587 79.6402 90.7005 78.8456 90.407C78.5668 90.3061 78.3033 90.1575 78.0728 89.9712C77.9894 89.9032 77.9054 89.8275 77.8304 89.7498L70.3712 82.0642C70.3593 82.0446 70.32 82.0166 70.3081 81.997C70.1645 81.8379 70.0377 81.66 69.9354 81.4715C69.8036 81.229 69.7091 80.9635 69.6572 80.6923C69.6439 80.6195 69.6306 80.5382 69.6236 80.4639L68.6069 70.6302C68.4871 69.4412 68.4829 68.2164 68.7765 67.0512C68.9635 66.3099 69.2866 65.5938 69.7728 64.9997C70.2233 64.4447 70.8119 64.0068 71.4579 63.7049C72.057 63.4239 72.7051 63.2487 73.3574 63.1457C73.7273 63.0876 74.1099 63.0511 74.484 63.0329C77.1115 62.979 81.8634 63.0042 84.493 63.0189Z"/>
		<path class="touch" d="M277.3 74.984C279.178 65.1061 282.815 45.8555 284.431 35.9356C284.48 35.4752 284.526 34.9974 284.514 34.5336C284.507 33.9912 284.451 33.4454 284.325 32.9178C284.121 32.0392 283.711 31.2075 283.127 30.5188C282.363 29.61 281.342 28.9507 280.275 28.4504C278.629 27.686 276.835 27.2397 275.062 26.8795C272.493 26.3646 269.544 26.0212 266.931 25.7087C246.811 23.3041 225.283 23.0652 205.008 23C184.728 23.0666 163.216 23.3034 143.086 25.7087C140.484 26.0226 137.525 26.3646 134.954 26.8795C133.183 27.2397 131.387 27.686 129.742 28.4504C128.675 28.9507 127.654 29.61 126.89 30.5188C126.447 31.0436 126.1 31.6503 125.873 32.2984C125.648 32.9367 125.536 33.6129 125.509 34.2876C125.484 34.7725 125.515 35.2699 125.564 35.752C127.194 45.7525 130.793 65.036 132.717 74.9847C133.62 81.2227 134.745 87.5559 136.893 93.4982C138.638 98.2774 141.288 103.043 145.713 105.802C148.338 107.469 151.393 108.335 154.446 108.794C156.275 109.072 158.222 109.221 160.072 109.309C166.256 109.57 198.183 109.39 205.01 109.44C212.002 109.383 243.536 109.582 249.947 109.309C251.924 109.214 253.993 109.054 255.947 108.735C258.817 108.273 261.679 107.434 264.163 105.891C265.858 104.847 267.354 103.488 268.6 101.939C270.611 99.4398 272.022 96.4949 273.126 93.4982C275.272 87.5559 276.399 81.2213 277.3 74.984Z"/>
	</g>
</svg>
