<svg width="100%" height="100%" viewBox="0 0 404 287" fill="none" xmlns="http://www.w3.org/2000/svg">
	<path class="background" fill-rule="evenodd" clip-rule="evenodd" d="M50.6337 38.507C50.6337 38.507 73 34 83 32C93 30 104.269 29.8889 104.269 29.8889C105.764 29.98 107.276 30.1621 108.734 30.523C116.927 28.606 125.6 27.4422 133.964 26.5187C156.139 23.3118 179.607 23.0904 202.001 23C224.389 23.0897 247.872 22.3125 270.038 25.5187C278.4 26.4415 287.077 28.606 295.269 30.523C296.725 30.1635 298.235 29.9807 299.731 29.8903C299.731 29.8903 314.5 30.5 322.5 32C330.5 33.5 353.365 38.5077 353.365 38.5077L356.993 39.3176C357.017 39.3231 357.046 39.3306 357.074 39.3379C357.097 39.3437 357.119 39.3494 357.138 39.3541C357.166 39.362 357.194 39.3699 357.223 39.3779C357.307 39.4014 357.394 39.4256 357.474 39.455C357.665 39.5173 357.852 39.5972 358.035 39.6799C358.876 40.0709 359.605 40.6762 360.217 41.3678C360.859 42.093 361.384 42.9211 361.835 43.7759C367.102 54.8947 372.341 67.0785 376.836 78.5286C385.796 101.493 393.128 125.452 397.083 149.813C399.299 163.041 400.438 177.333 401.356 190.726C402.213 205.299 402.468 220.247 400.506 234.741C399.237 243.931 397.289 253.176 393.728 261.771C391.606 266.806 388.852 271.772 384.653 275.368C381.374 278.21 377.334 280.023 373.238 281.354C368.95 282.739 364.489 283.72 360.034 284.382C356.886 284.823 353.667 285.173 350.485 285.015C349.441 284.951 348.386 284.812 347.398 284.456C346.711 284.211 346.058 283.851 345.486 283.397C344.645 282.733 343.955 281.88 343.358 280.996C343.054 280.538 342.72 280.011 342.454 279.533L342.3 279.261L342.144 278.981L341.829 278.395C339.99 274.823 337.874 270.038 336.273 266.366C332.538 257.779 328.044 246.792 324.68 238.081C323.301 234.516 321.534 229.507 319.851 224.738L319.851 224.735C318.671 221.391 317.532 218.164 316.598 215.634C315.232 212.07 313.7 208.48 311.685 205.23C309.412 201.549 306.45 198.235 302.85 195.811C301.145 194.675 299.25 193.793 297.304 193.156C293.851 192.03 290.195 191.563 286.581 191.352C283.138 191.158 279.47 191.223 276.029 191.396C247.719 193.412 214.38 193.479 185.841 193.368C167.97 193.271 147.531 192.681 129.746 191.5C127.652 191.366 125.154 191.261 123.057 191.237C119.274 191.205 115.384 191.347 111.652 191.967C108.847 192.433 106.049 193.189 103.494 194.458C101.665 195.359 99.972 196.548 98.446 197.896C96.33 199.748 94.4851 201.915 92.9339 204.258C90.1109 208.502 88.2261 213.37 86.4717 218.136C86.2341 218.812 85.9857 219.52 85.7283 220.253C83.299 227.175 80.068 236.38 77.5845 242.556C73.403 253.107 68.291 265.426 63.5132 275.693C62.9975 276.779 62.2695 278.23 61.6971 279.261C61.4617 279.679 61.1975 280.135 60.9383 280.54C60.2663 281.593 59.497 282.618 58.5112 283.397C57.9121 283.872 57.2283 284.242 56.5045 284.49C55.6217 284.795 54.6961 284.927 53.7656 284.998C52.2024 285.105 50.5986 285.05 49.0334 284.943C46.8389 284.789 44.5926 284.495 42.4198 284.142C38.4912 283.487 34.5514 282.58 30.7602 281.354C26.6627 280.024 22.6269 278.209 19.345 275.368C15.3751 271.974 12.6979 267.337 10.6253 262.602C6.82776 253.776 4.80986 244.228 3.49262 234.741C1.52797 220.246 1.79142 205.3 2.64272 190.726C3.53817 177.337 4.69986 163.034 6.91534 149.813C10.8685 125.45 18.2058 101.496 27.1616 78.5279C31.6444 67.068 36.9085 54.9073 42.1627 43.7752C42.5936 42.9548 43.0967 42.1616 43.7013 41.4575C44.3179 40.74 45.0592 40.1108 45.9161 39.7009C46.1726 39.5776 46.443 39.4753 46.7149 39.394L46.7632 39.38L46.8116 39.3667L46.8599 39.3534L46.9083 39.3408L46.9566 39.3289L47.0057 39.3169L50.6337 38.507Z"/>
	<g class="buttons">
		<path class="r2" d="M353.634 14.155L354.156 17.9173C354.499 20.3913 351.807 22.2597 349.556 21.1759C343.572 18.2936 333.605 14.1421 324.577 13.4144C316.925 12.7976 310.622 13.4109 306.465 14.0987C304.101 14.4897 301.886 12.2209 302.548 9.91819L303.619 6.19114C303.885 5.26658 304.571 4.52886 305.495 4.25835C309.187 3.17631 319.441 0.71842 330.662 2.82889C342.12 4.98397 350.048 10.3983 352.596 12.3344C353.176 12.7747 353.534 13.434 353.634 14.155Z"/>
		<path class="r1" d="M353.365 38.5521L352.518 33.1557C352.499 33.0394 352.475 32.9153 352.444 32.8018C352.341 32.4137 352.171 32.0416 351.943 31.7109C351.761 31.4468 351.541 31.205 351.294 31.0004C351.139 30.8421 349.998 30.1519 349.783 30.0062C345.059 27.0522 340.027 24.4051 334.714 22.6857C331.559 21.6571 328.244 20.9887 324.95 20.6062C321.831 20.2418 318.592 19.9777 315.453 20.0015C312.48 20.0169 309.47 20.2811 306.531 20.7162C305.578 20.8605 304.251 21.0658 303.307 21.2683C303.073 21.332 302.842 21.4224 302.627 21.5331C301.94 21.8849 301.377 22.4706 301.053 23.1706C300.951 23.3899 300.869 23.6246 300.815 23.86C300.807 23.9126 300.785 23.9854 300.779 24.0387L299.73 29.9333"/>
		<path class="l2" d="M50.3659 14.155L49.8439 17.9173C49.5007 20.3913 52.1932 22.2597 54.4435 21.1759C60.4282 18.2936 70.395 14.1421 79.4225 13.4144C87.0752 12.7976 93.3779 13.4109 97.5354 14.0987C99.8992 14.4897 102.114 12.2209 101.452 9.91819L100.381 6.19113C100.115 5.26658 99.4286 4.52886 98.5054 4.25835C94.8127 3.17631 84.5591 0.71842 73.338 2.82889C61.8798 4.98397 53.9523 10.3983 51.4036 12.3344C50.824 12.7747 50.466 13.434 50.3659 14.155Z"/>
		<path class="l1" d="M50.6348 38.5521L51.4812 33.1557C51.5008 33.0394 51.5247 32.9153 51.5555 32.8018C51.6585 32.4137 51.8287 32.0416 52.0565 31.7109C52.2379 31.4468 52.4586 31.205 52.7053 31.0004C52.8601 30.8421 54.0015 30.1519 54.2159 30.0062C58.9404 27.0522 63.9726 24.4051 69.2857 22.6857C72.4407 21.6571 75.7556 20.9887 79.0494 20.6062C82.168 20.2418 85.4071 19.9777 88.5468 20.0015C91.519 20.0169 94.529 20.2811 97.4683 20.7162C98.4212 20.8605 99.7482 21.0658 100.693 21.2683C100.926 21.332 101.157 21.4224 101.372 21.5331C102.059 21.8849 102.622 22.4706 102.947 23.1706C103.048 23.3899 103.13 23.6246 103.184 23.86C103.192 23.9126 103.214 23.9854 103.221 24.0387L104.269 29.9333"/>
	</g>
	<path class="outlines" d="M118.709 44C118.132 40.0042 119.07 38.1763 122.535 33.8381C126 29.5 133.962 26.5618 133.962 26.5618M118.709 44C120.054 49.611 121.512 57.0142 122.391 60.8212C123.943 68.2454 125.724 77.2208 126.854 84.701C127.359 88.198 127.78 91.8527 127.876 95.3854C127.928 97.6801 127.845 100.016 127.398 102.272C127.08 103.879 126.562 105.458 125.85 106.934C124.817 109.081 123.393 111.054 121.917 112.918L109.922 127.688C105.506 133.269 100.948 139.499 97.0281 145.443C92.5831 152.184 87.9861 160.009 84.0932 167.089C77.7712 178.65 71.5346 191.317 66.3119 203.408C58.3587 221.466 50.5134 246.141 44.1886 265.07C43.0619 268.253 41.8512 271.602 40.2628 274.581C39.3547 276.262 38.2954 277.911 36.873 279.205C35.9453 280.048 34.8369 280.713 33.6171 281.025C32.2802 281.377 30.8614 281.3 29.5252 280.98M118.709 44C118.245 42.0631 117.794 40.3398 117.385 39.0517C116.901 37.5873 116.295 36.125 115.405 34.8561C114.341 33.3217 112.828 32.1131 111.118 31.369C110.398 31.0524 109.652 30.8032 108.892 30.6063M133.962 26.5618C125.6 27.4845 108.892 30.6063 108.892 30.6063M133.962 26.5618C133.962 26.5618 170.498 22.4602 201.998 22.5C233.498 22.5399 269.882 25.5159 270.036 25.5618M285.408 43.5C285.985 39.5042 285.458 36.0908 281.872 33.8381L270.036 25.5618M285.408 43.5C285.828 41.775 286.236 40.2387 286.613 39.051C287.099 37.5845 287.703 36.1257 288.593 34.8554C289.658 33.3196 291.169 32.1138 292.88 31.3683C293.566 31.0661 294.276 30.8256 295 30.6333M285.408 43.5C284.042 49.1122 282.553 56.7217 281.606 60.8205C280.074 68.279 278.244 77.2117 277.144 84.7003C276.633 88.2036 276.217 91.8506 276.121 95.3847C276.068 97.5932 276.147 99.8367 276.548 102.012C276.861 103.71 277.397 105.377 278.146 106.934C279.178 109.081 280.608 111.051 282.079 112.918L294.074 127.688C298.491 133.271 303.047 139.495 306.968 145.443C311.413 152.184 316.01 160.008 319.903 167.089C326.226 178.651 332.461 191.315 337.685 203.408C345.615 221.401 353.521 246.254 359.807 265.07C360.936 268.257 362.144 271.599 363.733 274.581C364.641 276.263 365.701 277.911 367.123 279.205C368.05 280.048 369.159 280.713 370.379 281.025C371.717 281.377 373.135 281.3 374.471 280.98M270.036 25.5618C278.398 26.4845 286.809 28.7163 295 30.6333M295 30.6333C296.357 30.2728 297.764 30.0817 299.158 29.9712C302.21 29.7392 305.326 29.9102 308.372 30.175C318.74 31.1931 329.713 33.5263 339.938 35.6311L356.943 39.3502C357.003 39.3642 357.077 39.381 357.137 39.3978C357.299 39.4392 357.457 39.4938 357.615 39.5492C357.806 39.6171 357.99 39.7019 358.172 39.7902C358.648 40.0242 359.083 40.3367 359.484 40.6807C360.587 41.6483 361.39 42.9109 362.036 44.2163C371.603 64.6692 380.352 86.0379 387.029 107.617C390.931 120.261 394.241 133.493 396.52 146.528C398.81 159.328 400.104 173.125 401.053 186.121C402.447 206.344 402.853 227.087 398.337 246.965C397.402 251.083 396.232 255.237 394.762 259.197C393.559 262.404 392.139 265.608 390.354 268.536C388.918 270.901 387.196 273.124 385.14 274.983C383.205 276.743 380.968 278.168 378.61 279.29C373.975 281.464 368.943 282.765 363.937 283.763C361.217 284.287 358.407 284.703 355.647 284.935C353.856 285.07 352.029 285.173 350.232 285.043C349.206 284.966 348.171 284.807 347.209 284.43C346.43 284.128 345.708 283.669 345.092 283.107C344.003 282.112 343.186 280.846 342.454 279.577L342.3 279.306L342.145 279.025L341.829 278.44L341.507 277.819L341.176 277.162L340.484 275.738L339.743 274.159C335.299 264.443 330.338 252.546 326.413 242.601C323.032 234.236 319.324 222.938 316.133 214.479C315.242 212.243 314.263 209.933 313.13 207.807C311.426 204.563 309.292 201.501 306.647 198.953C305.319 197.67 303.87 196.478 302.299 195.503C300.506 194.386 298.521 193.546 296.496 192.95C293.692 192.125 290.751 191.704 287.841 191.481C284.545 191.234 281.037 191.235 277.734 191.364C267.42 191.952 254.393 192.687 244.059 192.98C231.915 193.366 214.183 193.43 201.998 193.443C189.823 193.444 172.067 193.361 159.937 192.98C149.596 192.694 136.58 191.947 126.262 191.364C122.955 191.237 119.451 191.233 116.155 191.481C113.245 191.705 110.306 192.125 107.501 192.95C105.581 193.516 103.698 194.297 101.981 195.33C100.299 196.338 98.7587 197.593 97.3504 198.953C94.704 201.502 92.5726 204.563 90.8679 207.808C89.7328 209.935 88.7666 212.237 87.8642 214.479C86.699 217.258 83.3765 227.188 82.2113 230.284C80.9017 233.981 79.0107 238.929 77.5855 242.602C73.6506 252.552 68.6955 264.45 64.2548 274.161C63.4392 275.893 62.4933 277.932 61.5439 279.579C60.7935 280.878 59.9576 282.174 58.8289 283.178C58.1794 283.756 57.4205 284.21 56.6008 284.502C55.4454 284.917 54.2108 285.037 52.9903 285.085C48.9272 285.185 44.8444 284.622 40.8514 283.914C37.9695 283.383 35.0506 282.698 32.241 281.862C29.816 281.128 27.3567 280.264 25.0823 279.144C22.8367 278.049 20.7109 276.667 18.8591 274.985C16.8019 273.127 15.0825 270.903 13.6448 268.539C11.8588 265.61 10.4442 262.404 9.23692 259.199C7.76343 255.241 6.60244 251.083 5.66146 246.967C1.14431 227.088 1.55559 206.345 2.9457 186.124C3.8965 173.143 5.18711 159.319 7.47897 146.53C9.75331 133.494 13.0758 120.265 16.9701 107.619C23.6102 86.1332 32.3299 64.8647 41.8302 44.4916C42.4979 43.0861 43.3366 41.7184 44.5137 40.6821C45.0518 40.2127 45.6656 39.8203 46.3354 39.5681C46.5204 39.4959 46.718 39.4371 46.9093 39.3866L46.9576 39.3747L47.0066 39.3628L47.0557 39.3516L64.0607 35.6325C73.9442 33.623 84.6482 31.2982 94.6753 30.2682C97.9228 29.9494 101.252 29.7364 104.513 29.9487C105.98 30.0503 107.462 30.236 108.892 30.6063M126.293 81.1011C127.338 87.1856 128.615 93.3535 130.84 99.1269C132.064 102.257 133.613 105.324 135.787 107.909C137.073 109.439 138.593 110.783 140.299 111.828C143.56 113.842 147.388 114.703 151.161 115.113C155.63 115.598 160.622 115.54 165.133 115.557C170.844 115.499 245.336 115.701 248.587 115.426C250.902 115.319 253.304 115.131 255.586 114.725C258.422 114.224 261.238 113.348 263.699 111.828C265.405 110.783 266.926 109.439 268.211 107.909C270.384 105.324 271.934 102.257 273.159 99.1269C275.383 93.3535 276.662 87.1849 277.705 81.1011M240 150.999C239.978 142.277 244.466 133.985 251.781 129.233C265.148 120.538 283.053 125.741 289.677 140.246C292.774 147.005 292.774 154.995 289.677 161.754C283.053 176.259 265.147 181.462 251.781 172.767C244.465 168.014 239.978 159.722 240 150.999ZM112 150.999C111.978 142.277 116.466 133.985 123.781 129.233C137.148 120.538 155.053 125.741 161.677 140.246C164.774 147.005 164.774 154.995 161.677 161.754C155.053 176.259 137.147 181.462 123.781 172.767C116.465 168.014 111.978 159.722 112 150.999Z"/>
	<g class="buttons">
		<path class="share" d="M106.525 43.1021C105.667 43.2927 104.867 43.739 104.255 44.3696C103.643 44.9967 103.218 45.8053 103.05 46.6657C102.928 47.2823 102.936 47.9255 103.073 48.5386C103.091 48.5897 105.122 57.734 105.136 57.7789C105.167 57.9106 105.206 58.0465 105.249 58.1747C105.386 58.5888 105.585 58.9847 105.834 59.3427C106.356 60.0938 107.111 60.6803 107.968 61.0005C108.79 61.3109 109.704 61.3746 110.562 61.182C111.42 60.9914 112.219 60.5451 112.832 59.9145C113.457 59.2741 113.887 58.4438 114.047 57.5624C114.13 57.1146 114.145 56.6522 114.091 56.2003C114.075 56.0657 114.052 55.9263 114.024 55.7946C114.024 55.7617 111.964 46.5949 111.961 46.5543C111.828 45.9594 111.574 45.3905 111.219 44.8951C110.698 44.1664 109.957 43.5975 109.118 43.2836C108.296 42.9732 107.383 42.9095 106.525 43.1021Z"/>
		<path class="options" d="M297.474 43.1021C298.333 43.2927 299.132 43.739 299.744 44.3696C300.357 44.9967 300.781 45.8053 300.949 46.6657C301.071 47.2823 301.064 47.9255 300.926 48.5386C300.907 48.5897 298.877 57.734 298.862 57.7789C298.831 57.9106 298.793 58.0465 298.75 58.1747C298.613 58.5888 298.414 58.9847 298.164 59.3427C297.642 60.0938 296.888 60.6803 296.031 61.0005C295.208 61.3109 294.295 61.3746 293.437 61.182C292.579 60.9914 291.779 60.5451 291.167 59.9145C290.541 59.2741 290.112 58.4438 289.951 57.5624C289.869 57.1146 289.854 56.6522 289.908 56.2003C289.924 56.0657 289.946 55.9263 289.975 55.7946C289.974 55.7617 292.035 46.5949 292.038 46.5543C292.17 45.9594 292.425 45.3905 292.78 44.8951C293.3 44.1664 294.042 43.5975 294.88 43.2836C295.703 42.9732 296.617 42.9095 297.474 43.1021Z"/>
		<g class="rxy">
			<path class="sclera" d="M240 150.999C239.978 142.277 244.466 133.985 251.781 129.233C265.148 120.538 283.053 125.741 289.677 140.246C292.774 147.005 292.774 154.995 289.677 161.754C283.053 176.259 265.147 181.462 251.781 172.767C244.465 168.014 239.978 159.722 240 150.999Z"/>
			<circle class="pupil" cx="266" cy="151" r="16"/>
			<circle class="iris" cx="266" cy="151" r="8"/>
		</g>
		<g class="lxy">
			<path class="sclera" d="M112 150.999C111.978 142.277 116.466 133.985 123.781 129.233C137.148 120.538 155.053 125.741 161.677 140.246C164.774 147.005 164.774 154.995 161.677 161.754C155.053 176.259 137.147 181.462 123.781 172.767C116.465 168.014 111.978 159.722 112 150.999Z"/>
			<circle class="pupil" cx="138" cy="151" r="16"/>
			<circle class="iris" cx="138" cy="151" r="8"/>
		</g>
		<path class="ps" d="M211.868 147.931C211.877 143.432 208.786 139.459 204.422 138.364C198.215 136.805 192.2 141.445 192.132 147.845C192.089 154.317 198.144 159.072 204.422 157.497C208.786 156.402 211.878 152.429 211.868 147.931Z"/>
		<path class="square" d="M310.512 96.6695C310.528 92.233 308.229 87.9835 304.505 85.5704C297.697 81.1359 288.554 83.7928 285.183 91.1855C283.606 94.6173 283.606 98.7211 285.183 102.153C288.554 109.546 297.698 112.203 304.505 107.768C308.229 105.356 310.528 101.106 310.512 96.6695Z"/>
		<path class="circle" d="M369.336 96.6695C369.352 92.233 367.052 87.9835 363.329 85.5704C356.52 81.1359 347.378 83.7928 344.007 91.1855C342.429 94.6173 342.429 98.7211 344.007 102.153C347.378 109.546 356.521 112.203 363.329 107.768C367.052 105.356 369.352 101.106 369.336 96.6695Z"/>
		<path class="cross" d="M326.666 112.823C322.23 112.807 317.98 115.107 315.567 118.83C311.133 125.638 313.79 134.781 321.183 138.152C324.615 139.73 328.719 139.73 332.15 138.152C339.543 134.781 342.201 125.638 337.765 118.83C335.352 115.107 331.103 112.808 326.666 112.823Z"/>
		<path class="triangle" d="M326.666 54.0001C322.23 53.984 317.98 56.2835 315.567 60.0068C311.133 66.8151 313.79 75.958 321.183 79.3289C324.615 80.9068 328.719 80.9068 332.15 79.3289C339.543 75.958 342.201 66.8144 337.765 60.0068C335.352 56.2835 331.103 53.984 326.666 54.0001Z"/>
		<path class="right" d="M109.485 100.658C109.473 102.558 109.034 104.665 107.478 105.91C106.689 106.55 105.698 106.894 104.702 107.036C104.062 107.13 103.405 107.147 102.759 107.118C102.267 107.111 92.5119 106.039 91.8309 105.955C91.5443 105.904 91.2634 105.805 91.0083 105.665C90.7932 105.548 90.5928 105.398 90.4177 105.227L82.77 97.7289L82.737 97.696L82.7041 97.6624C82.5976 97.5502 82.4974 97.4255 82.4119 97.2966C81.939 96.5939 81.8297 95.6662 82.1275 94.873C82.2298 94.5949 82.3797 94.3321 82.5668 94.1023C82.6354 94.0189 82.7111 93.9356 82.7889 93.8613L90.5116 86.4413C90.5312 86.4301 90.5599 86.3909 90.5788 86.3782C90.7386 86.2353 90.9172 86.1092 91.1064 86.0083C91.3496 85.878 91.6151 85.7848 91.887 85.7343C91.9598 85.7217 92.0411 85.7084 92.1154 85.7021L101.954 84.7352C103.144 84.6217 104.369 84.6231 105.532 84.923C106.272 85.1143 106.988 85.4408 107.579 85.9298C108.132 86.3831 108.567 86.9738 108.865 87.6219C109.143 88.2224 109.315 88.8712 109.415 89.5242C109.471 89.8949 109.506 90.2774 109.521 90.6516C109.563 93.2762 109.514 98.0281 109.485 100.658Z"/>
		<path class="left" d="M44.0189 91.0355C44.0217 89.1353 44.4505 87.0257 45.9997 85.7729C46.7851 85.1297 47.7744 84.7807 48.7701 84.6322C49.4098 84.5355 50.0663 84.5152 50.713 84.5404C51.2049 84.546 60.9651 85.5676 61.6468 85.6489C61.9341 85.6986 62.215 85.796 62.4715 85.9347C62.6866 86.0517 62.8884 86.1996 63.0642 86.3705L70.7498 93.8298L70.7834 93.8627L70.8163 93.8963C70.9235 94.0077 71.0244 94.1324 71.1106 94.2607C71.587 94.9606 71.7005 95.8883 71.407 96.6828C71.3061 96.9617 71.1575 97.2252 70.9712 97.4557C70.9032 97.539 70.8275 97.6231 70.7498 97.6981L63.0642 105.157C63.0446 105.169 63.0166 105.208 62.997 105.22C62.8379 105.364 62.6599 105.491 62.4715 105.593C62.229 105.725 61.9635 105.819 61.6923 105.871C61.6195 105.885 61.5382 105.898 61.4639 105.905L51.6302 106.922C50.4411 107.041 49.2164 107.046 48.0512 106.752C47.3099 106.565 46.5938 106.242 45.9997 105.756C45.4448 105.305 45.0068 104.717 44.7049 104.071C44.4239 103.472 44.2487 102.823 44.1457 102.171C44.0876 101.801 44.0511 101.419 44.0329 101.044C43.979 98.417 44.0042 93.6651 44.0189 91.0355Z"/>
		<path class="down" d="M72.0372 128.51C70.1371 128.507 68.0274 128.078 66.7746 126.529C66.1314 125.743 65.7825 124.754 65.6339 123.758C65.5372 123.119 65.5169 122.462 65.5421 121.815C65.5477 121.324 66.5693 111.563 66.6506 110.882C66.7003 110.594 66.7977 110.313 66.9364 110.057C67.0534 109.841 67.2013 109.64 67.3722 109.464L74.8315 101.779L74.8644 101.745L74.898 101.712C75.0094 101.605 75.1342 101.504 75.2624 101.418C75.9623 100.941 76.89 100.828 77.6846 101.121C77.9634 101.222 78.2269 101.371 78.4574 101.557C78.5408 101.625 78.6248 101.701 78.6998 101.779L86.159 109.464C86.1709 109.484 86.2102 109.512 86.2221 109.532C86.3657 109.691 86.4925 109.869 86.5948 110.057C86.7266 110.299 86.8211 110.565 86.873 110.836C86.8863 110.909 86.8996 110.99 86.9066 111.065L87.9233 120.898C88.0431 122.087 88.0473 123.312 87.7537 124.477C87.5666 125.219 87.2436 125.935 86.7574 126.529C86.3069 127.084 85.7183 127.522 85.0723 127.824C84.4732 128.105 83.8251 128.28 83.1728 128.383C82.8029 128.441 82.4203 128.477 82.0461 128.496C79.4187 128.549 74.6661 128.524 72.0372 128.51Z"/>
		<path class="up" d="M81.493 63.0189C83.3931 63.0217 85.5028 63.4505 86.7556 64.9997C87.3988 65.7851 87.7477 66.7744 87.8963 67.7701C87.993 68.4098 88.0133 69.0663 87.9881 69.713C87.9825 70.2049 86.9609 79.9651 86.8796 80.6468C86.8299 80.9341 86.7325 81.215 86.5938 81.4715C86.4767 81.6866 86.3289 81.8884 86.158 82.0642L78.6987 89.7498L78.6658 89.7834L78.6322 89.8163C78.5208 89.9235 78.396 90.0244 78.2678 90.1106C77.5679 90.587 76.6402 90.7005 75.8456 90.407C75.5668 90.3061 75.3033 90.1575 75.0728 89.9712C74.9894 89.9032 74.9054 89.8275 74.8304 89.7498L67.3712 82.0642C67.3593 82.0446 67.32 82.0166 67.3081 81.997C67.1645 81.8379 67.0377 81.66 66.9354 81.4715C66.8036 81.229 66.7091 80.9635 66.6572 80.6923C66.6439 80.6195 66.6306 80.5382 66.6236 80.4639L65.6069 70.6302C65.4871 69.4412 65.4829 68.2164 65.7765 67.0512C65.9635 66.3099 66.2866 65.5938 66.7728 64.9997C67.2233 64.4447 67.8119 64.0068 68.4579 63.7049C69.057 63.4239 69.7051 63.2487 70.3574 63.1457C70.7273 63.0876 71.1099 63.0511 71.484 63.0329C74.1115 62.979 78.8634 63.0042 81.493 63.0189Z"/>
		<path class="touch" d="M274.3 74.984C276.178 65.1061 279.815 45.8555 281.431 35.9356C281.48 35.4752 281.526 34.9974 281.514 34.5336C281.507 33.9912 281.451 33.4454 281.325 32.9178C281.121 32.0392 280.711 31.2075 280.127 30.5188C279.363 29.61 278.342 28.9507 277.275 28.4504C275.629 27.686 273.835 27.2397 272.062 26.8795C269.493 26.3646 266.544 26.0212 263.931 25.7087C243.811 23.3041 222.283 23.0652 202.008 23C181.728 23.0666 160.216 23.3034 140.086 25.7087C137.484 26.0226 134.525 26.3646 131.954 26.8795C130.183 27.2397 128.387 27.686 126.742 28.4504C125.675 28.9507 124.654 29.61 123.89 30.5188C123.447 31.0436 123.1 31.6503 122.873 32.2984C122.648 32.9367 122.536 33.6129 122.509 34.2876C122.484 34.7725 122.515 35.2699 122.564 35.752C124.194 45.7525 127.793 65.036 129.717 74.9847C130.62 81.2227 131.745 87.5559 133.893 93.4982C135.638 98.2774 138.288 103.043 142.713 105.802C145.338 107.469 148.393 108.335 151.446 108.794C153.275 109.072 155.222 109.221 157.072 109.309C163.256 109.57 195.183 109.39 202.01 109.44C209.002 109.383 240.536 109.582 246.947 109.309C248.924 109.214 250.993 109.054 252.947 108.735C255.817 108.273 258.679 107.434 261.163 105.891C262.858 104.847 264.354 103.488 265.6 101.939C267.611 99.4398 269.022 96.4949 270.126 93.4982C272.272 87.5559 273.399 81.2213 274.3 74.984Z"/>
	</g>
</svg>
